<?xml version="1.0" encoding="UTF-8"?>
<svg xmlns="http://www.w3.org/2000/svg" version="1.1" viewBox="0 0 3000 3000">
  <defs>
    <style>
      .cls-1 {
        fill: #fff;
      }
    </style>
  </defs>
  <!-- Generator: Adobe Illustrator 28.7.1, SVG Export Plug-In . SVG Version: 1.2.0 Build 142)  -->
  <g>
    <g id="Layer_2">
      <path class="cls-1" d="M1726.48,2672.97c-14.86,0-30.51-.67-47.1-2.02-62.25-5.05-110.32-16.2-151.28-35.09-44.58-20.56-82.65-51.29-119.48-81l-302.47-244.07c-5.86-4.73-6.78-13.31-2.05-19.17,4.73-5.86,13.31-6.77,19.17-2.05l302.47,244.07c35.53,28.67,72.27,58.32,113.78,77.46,37.96,17.51,83.1,27.89,142.06,32.67,88.18,7.15,152.56-6.09,196.84-40.47,26.94-20.92,47.13-50.25,66.65-78.62,104.42-151.72,222.76-323.69,264.73-515.57,13.95-63.79,19.62-130.34,25.09-194.7l15.45-181.6c5.78-67.93,11.76-138.17.98-206-2.41-15.17-5.73-30.89-8.95-46.1-10.58-50.04-21.51-101.79-5.34-152.05,2.31-7.17,9.98-11.1,17.15-8.8,7.17,2.31,11.11,9.98,8.8,17.15-13.95,43.36-4.23,89.36,6.06,138.06,3.28,15.54,6.68,31.61,9.2,47.46,11.3,71.11,5.18,143.03-.74,212.58l-15.45,181.6c-5.55,65.23-11.29,132.69-25.62,198.22-19.12,87.41-54.71,177.41-108.8,275.15-49.22,88.93-108.13,174.53-160.1,250.05-20.7,30.08-42.1,61.18-72.38,84.69-27.82,21.6-62.69,36.09-103.64,43.05-19.97,3.39-41.49,5.09-65.02,5.09Z"/>
      <g>
        <path class="cls-1" d="M1638.58,1921.96c-2.12,0-4.23-.94-5.64-2.74-20.36-25.86-23.05-62.24-6.69-90.53,16.23-28.07,49.83-45.55,83.56-43.49,3.96.24,6.96,3.64,6.72,7.6s-3.66,6.98-7.6,6.72c-28-1.71-56.9,13.24-70.27,36.35-13.24,22.89-10.96,53.51,5.54,74.47,2.45,3.11,1.92,7.62-1.2,10.07-1.32,1.04-2.88,1.54-4.43,1.54Z"/>
        <path class="cls-1" d="M1923.17,1999.49c-4.75,0-9.46-.36-14.08-1.1-27.15-4.32-50.04-19.62-72.18-34.41-20.15-13.46-39.18-26.18-61.09-31.28-3.86-.9-6.26-4.75-5.36-8.61.9-3.86,4.75-6.25,8.61-5.36,24.46,5.69,45.48,19.74,65.81,33.33,21.81,14.58,42.41,28.34,66.46,32.17,32.86,5.23,68.55-12.03,84.86-41.03.55-.97,1.1-1.97,1.65-2.98,6.12-11.11,13.73-24.93,28.86-25.56,3.96-.2,7.3,2.91,7.47,6.87.17,3.96-2.91,7.3-6.87,7.47-6.55.27-11.13,7.7-16.89,18.15-.58,1.05-1.15,2.09-1.72,3.09-9.33,16.59-24.42,30.53-42.47,39.26-13.62,6.58-28.51,10-43.07,10Z"/>
        <path class="cls-1" d="M2062.49,1898.08c-.59,0-1.18-.07-1.78-.23-3.84-.98-6.16-4.89-5.17-8.73,7.31-28.6-8.59-61.85-35.45-74.11-3.6-1.65-5.19-5.9-3.55-9.5,1.65-3.61,5.9-5.19,9.5-3.55,16.07,7.34,29.41,20.75,37.55,37.78s10.22,35.82,5.84,52.94c-.83,3.24-3.75,5.4-6.95,5.4Z"/>
        <path class="cls-1" d="M1349.57,2183.21c-3.02,0-5.83-1.92-6.82-4.95-16.34-50.1-1.65-108.14,36.56-144.43,10.01-9.51,21.45-17.55,32.52-25.33,18.56-13.05,36.09-25.38,46.52-43.62,1.97-3.44,6.35-4.63,9.79-2.67,3.44,1.97,4.63,6.35,2.67,9.79-12.02,21.02-31.7,34.86-50.73,48.24-10.64,7.48-21.64,15.22-30.89,24-34.28,32.56-47.46,84.63-32.8,129.58,1.23,3.77-.83,7.82-4.6,9.04-.74.24-1.49.36-2.23.36Z"/>
      </g>
      <path class="cls-1" d="M876.97,1972.18c-5.52,0-11.2-.66-16.96-2.03-27.14-6.46-52.23-26.46-72.55-57.83-32.96-50.89-45.12-112.35-55.85-166.57-17.72-89.55-36.04-182.15-33.84-275.91,1.16-49.26,14.6-80.8,41.11-96.42,11.95-7.04,26.7-10.55,43.78-10.39,49.48.43,97.37,32.62,116.46,78.27,2.9,6.95-.37,14.93-7.32,17.83-6.95,2.9-14.93-.37-17.83-7.32-15-35.89-52.65-61.19-91.54-61.53-12.08-.11-22.07,2.12-29.7,6.62-17.72,10.44-26.78,34.51-27.69,73.58-2.13,90.76,15.9,181.87,33.33,269.98,10.75,54.35,21.87,110.55,51.99,157.04,11.46,17.69,30.48,40.06,55.98,46.13,21.15,5.03,38.95-4.72,44.31-24.27,1.99-7.26,9.48-11.53,16.75-9.55,7.26,1.99,11.53,9.49,9.55,16.75-7.72,28.18-31.64,45.62-59.95,45.62Z"/>
      <path class="cls-1" d="M879.96,1743.8c-3.64,0-6.76-2.76-7.13-6.46-2.84-28.38-13.35-52.83-24.47-78.72-12.43-28.93-25.29-58.84-26.17-94.23-.1-3.96,3.03-7.25,6.99-7.35.06,0,.12,0,.18,0,3.88,0,7.07,3.09,7.17,6.99.82,32.63,12.57,59.97,25.01,88.92,11.07,25.75,22.51,52.37,25.57,82.96.39,3.94-2.48,7.46-6.42,7.85-.24.02-.48.04-.72.04Z"/>
      <path class="cls-1" d="M811.11,1383c-7.18,0-13.19-5.61-13.6-12.87-4.29-76.8-27.31-152.86-49.56-226.41-22.36-73.9-45.48-150.31-50.48-229.02-1.28-20.1-7.68-39.71-13.88-58.67-8.59-26.29-17.41-53.29-12.82-81.84-28.01,9.72-51.89,32.53-61.55,60.47-2.29,6.61-9.22,10.42-16.02,8.81-6.81-1.61-11.29-8.12-10.37-15.06,13.69-103.07,68.76-199.29,149.73-264.15l-39.27-2.45c-6.05-.38-11.13-4.71-12.45-10.63-1.32-5.92,1.42-12,6.74-14.92,37.16-20.4,79.97-29.71,122.18-26.79-1.47-54.9,23.81-110,67.14-144.02,4.11-3.23,9.7-3.82,14.39-1.53,4.69,2.29,7.67,7.06,7.66,12.28l-.19,91.13c21.17-19.92,40.43-42.55,59.21-64.62,30.76-36.16,62.57-73.55,103.51-100.49,44.23-29.1,96.65-43.94,142.31-55.56,85.73-21.82,160.58-34.91,228.85-40.02,84.77-6.34,160.3-.77,230.92,17.03,90.18,22.73,173.01,66.12,253.12,108.08,56.32,29.5,114.56,60,166.41,99.76,60.8,46.62,112.21,105.64,152.82,175.42,39.27,67.49,66.26,141.17,80.23,219,13.4,74.67,14.91,152.8,4.48,232.2-9.97,75.91-30.59,151.39-61.29,224.35-2.7,6.42-9.81,9.77-16.49,7.77s-10.76-8.72-9.47-15.57c7.91-42.18,8.18-85.37.97-127.41l-10.64,62c-1.17,6.8-7.24,11.65-14.11,11.31-6.89-.34-12.43-5.78-12.92-12.66-2.64-37.54-7.85-74.84-15.59-111.6-6.2,59.67-23.79,118.23-51.93,171.11-2.82,5.3-8.78,8.13-14.67,6.97-5.89-1.16-10.33-6.04-10.92-12.02-8.25-82.52-32.1-164.1-69.49-238.34-10.81,63.45-37.14,124.55-76.14,175.56-2.69,3.52-6.93,5.52-11.34,5.34-4.42-.17-8.49-2.47-10.91-6.18-9.71-14.9-17.84-30.66-24.32-47.09l-20.37,42.39c-2.59,5.38-8.38,8.45-14.28,7.58-5.91-.88-10.56-5.49-11.47-11.4-3.69-23.84-8.68-47.54-14.9-70.9-4.16,16.42-9.92,32.54-17.2,48.01-16.54,35.14-40.68,66.39-69.8,90.34-3.76,3.09-8.89,3.95-13.45,2.24-4.56-1.71-7.86-5.73-8.66-10.53-9.49-57.23-23.82-113.57-42.79-168.34-5.4,66.06-31.95,130.48-76.16,180.03-3.71,4.16-9.59,5.64-14.83,3.73-5.24-1.91-8.79-6.82-8.96-12.4-.86-28.54-4.9-56.7-12.04-84.14-15.97,49.04-38.04,95.8-65.87,139.5-3.16,4.96-9.14,7.33-14.84,5.89-5.7-1.44-9.83-6.37-10.25-12.23-7.9-109.69-26.1-229.05-96.88-303.45,4.57,33.22,5.13,67.06,1.67,101.04-4.85,47.58-17.4,93.3-37.28,135.88-2.71,5.8-9.08,8.93-15.33,7.53-6.24-1.4-10.68-6.95-10.65-13.35.27-74.38-28.92-147.91-79.27-202.41-.08,77.15-14.05,155.01-40.91,227.08-2.47,6.62-9.58,10.25-16.39,8.38-6.81-1.87-11.06-8.64-9.79-15.59,13.8-75.65,7.2-153.83-19.09-226.09-2.57-7.07,1.07-14.9,8.15-17.47,7.07-2.57,14.89,1.07,17.47,8.15,13.28,36.5,21.83,74.42,25.58,112.8,6.77-42.86,9.14-86.44,6.91-129.46-.28-5.45,2.71-10.54,7.61-12.94,4.9-2.4,10.76-1.65,14.9,1.91,55.34,47.69,93.06,114.53,106.57,186.08,19.76-66.23,22.01-137.2,5.93-204.81-1.33-5.57.97-11.37,5.75-14.53,4.78-3.15,11.01-2.99,15.62.41,48.11,35.57,82.39,87.04,104.82,157.35,15.6,48.92,23.53,101.85,28.19,148.63,23.55-43.62,41.45-90,53.35-138.35,1.42-5.78,6.42-9.96,12.36-10.34,5.92-.39,11.43,3.13,13.58,8.67,12.44,32.07,20.72,65.35,24.74,99.31,42.83-62.69,59.25-143.19,42.96-217.5-1.5-6.83,2.42-13.69,9.07-15.87,6.65-2.18,13.87,1.04,16.7,7.43,32.69,73.78,56.84,151.19,71.92,230.44,42.62-43.41,67.42-103.23,67.27-164.34-.02-6.62,4.72-12.29,11.23-13.45,6.51-1.16,12.92,2.52,15.2,8.73,11.12,30.39,20.17,61.64,27.04,93.32l17.14-35.66c2.49-5.18,7.96-8.24,13.68-7.65,5.72.59,10.45,4.71,11.83,10.29,4.74,19.16,11.8,37.53,21.07,54.83,37.44-55.22,59.87-121.08,63.58-187.62.33-6,4.56-11.07,10.4-12.49,5.84-1.42,11.92,1.17,14.96,6.35,43.22,73.66,73.01,155.94,87.27,240.35,27.68-68.86,37.81-144.93,28.61-218.52-.87-6.93,3.64-13.39,10.44-14.97,6.79-1.58,13.69,2.23,15.97,8.82,14.19,41.06,25.19,83.13,32.92,125.81l5.76-33.6c1.05-6.11,6.09-10.74,12.26-11.27,6.16-.54,11.93,3.17,14.01,9.01,12.1,34.01,19.33,69.46,21.61,105.23,35.61-118.56,43.73-239,23.3-352.83-27.35-152.36-108.56-289.99-222.8-377.6-49.98-38.33-107.17-68.28-162.47-97.24-78.7-41.22-160.09-83.85-247.14-105.79-160.39-40.43-331.57-6.25-446.38,22.98-45.51,11.58-93.34,25.13-134.05,51.92-37.69,24.79-66.85,59.08-97.73,95.38-25.98,30.54-52.84,62.11-85.26,87.49-4.11,3.22-9.69,3.8-14.38,1.52-4.69-2.29-7.66-7.06-7.65-12.28l.18-88.55c-25.95,31.53-38.8,73.79-33.5,114.46.55,4.24-.91,8.49-3.96,11.48-3.05,3-7.32,4.39-11.55,3.76-19.91-2.94-40.19-2.71-59.97.55l9.54.59c5.87.37,10.84,4.45,12.33,10.14,1.5,5.68-.82,11.69-5.75,14.89-73.42,47.75-128.61,121.7-154.93,204.96.15-.12.3-.24.45-.36,19.1-15.09,41.44-24.3,64.61-26.61,4.82-.48,9.53,1.63,12.38,5.54,2.85,3.91,3.41,9.05,1.47,13.48-12.23,27.96-3.42,54.9,6.77,86.1,6.72,20.58,13.68,41.86,15.17,65.41,4.81,75.57,27.46,150.45,49.37,222.86,22.72,75.09,46.21,152.73,50.69,232.78.42,7.52-5.33,13.95-12.85,14.37-.26.01-.52.02-.77.02Z"/>
      <path class="cls-1" d="M2021.23,2098.78c-6.92-7.28-17.06-10.49-27.11-8.58-80.18,15.16-162.55,23.64-244.79,25.2-46.17.88-92.87-.44-138.8-3.89-5.53-.42-16.38-2.47-27.86-4.66-46.99-8.92-81.5-14.31-97.6-2.38-9.46,7.01-14.16,17.06-13.23,28.29,1.59,19.23,19.78,42.16,55.63,70.1,27.13,21.15,56.86,39.07,69.23,45.4,55.97,28.65,120.83,44.1,184.29,44.1,5.32,0,10.64-.11,15.93-.33,51.86-2.14,92.56-13.42,124.41-34.47,22.99-15.19,40.6-35.09,57.64-54.33,20.96-23.68,42.03-49.27,49.19-78.88,2.21-9.13-.38-18.69-6.92-25.56ZM1501.23,2126.41c.49-.27,6.01-2.96,28.15-.63,15.37,1.61,32.82,4.92,48.21,7.85,13.32,2.53,23.84,4.53,30.9,5.06,46.78,3.52,94.34,4.85,141.36,3.97,83.77-1.59,167.66-10.22,249.34-25.67h0c1.7-.32,2.45.72,2.49.85,0,0,0,.03-.02.1-2.73,11.28-8.45,22.33-15.73,33.12-62.4,29.19-137.04,42.36-233.8,41.3-77.34-.84-158.32-21-236.63-40.5-1.59-.4-3.16-.78-4.75-1.18-7.88-9.14-11.39-15.96-11.74-20.16-.1-1.18-.19-2.29,2.22-4.1Z"/>
      <g>
        <g>
          <path class="cls-1" d="M1642.18,1243.56c-80.51-13.7-162.95-21.08-243.84-9.84-80.89,11.24-160.61,42.22-220.61,97.63-6.1,5.63-12.22,11.92-14.26,19.96-4.78,18.91,16.52,35.8,36.02,35.55s36.96-11.22,54.61-19.51c48.45-22.73,103.37-26.28,156.8-29.46,44.18-2.63,88.35-5.26,132.53-7.89,35.75-2.13,130.82,19.08,154.97-12.43,31.15-40.64-24.35-68.59-56.23-74.01Z"/>
          <path class="cls-1" d="M1199.08,1394.76c-13.85,0-28.21-6.91-36.72-17.69-6.61-8.38-8.93-18.22-6.54-27.69,2.6-10.27,9.91-17.68,16.56-23.82,72.06-66.54,162.06-90.92,224.88-99.65,70.68-9.82,148.92-6.69,246.25,9.88h0c22.33,3.8,59.22,18.82,69.36,44.64,3.7,9.43,5.29,24.36-8.19,41.95-19.97,26.06-75.7,21.34-120.48,17.54-15.83-1.34-30.77-2.6-40.28-2.04l-132.53,7.89c-49.76,2.96-106.16,6.32-153.92,28.73-3.3,1.55-6.71,3.25-10,4.89-14.9,7.44-30.31,15.14-47.87,15.36-.17,0-.35,0-.52,0ZM1480.91,1236.13c-28.64,0-55.6,1.81-81.48,5.41-60.58,8.42-147.29,31.84-216.34,95.61-4.98,4.6-10.42,10.02-11.96,16.1-1.49,5.91,1.15,10.9,3.63,14.04,5.52,6.99,15.65,11.81,24.65,11.68,13.95-.18,27.1-6.74,41.02-13.7,3.38-1.69,6.87-3.43,10.35-5.06,50.5-23.69,108.5-27.15,159.68-30.2l132.53-7.89c10.63-.64,25.42.62,42.54,2.07,38.79,3.29,91.91,7.79,106.62-11.42,7.33-9.56,9.3-18.26,6.03-26.58-7.28-18.55-37.9-31.54-57.32-34.85-59.81-10.18-112.21-15.21-159.95-15.21Z"/>
        </g>
        <g>
          <path class="cls-1" d="M1977.87,1269.54c60.73-5.56,122.36-5.7,181.31,9.62,58.95,15.33,115.39,47.07,155.23,97.8,4.05,5.15,8.06,10.86,8.9,17.73,1.98,16.16-15.19,28.73-29.61,27.09s-26.43-12.09-38.81-20.31c-33.99-22.56-74.34-29.54-113.63-36.12-32.48-5.43-64.97-10.87-97.45-16.3-26.28-4.4-98.41,6.38-113.68-21.74-19.69-36.27,23.69-55.57,47.74-57.78Z"/>
          <path class="cls-1" d="M2296.28,1428.17c-1.1,0-2.2-.06-3.28-.18-13.23-1.5-24.08-9.12-34.58-16.5-2.3-1.61-4.67-3.28-6.98-4.82-33.35-22.14-74.71-29.06-111.21-35.16l-97.45-16.3c-6.9-1.15-18.03-1.19-29.81-1.23-33.68-.11-75.59-.24-88.32-23.69-8.86-16.31-5.8-28.93-1.68-36.64,10.46-19.56,38.22-28.85,54.34-30.33,73.54-6.74,131.83-3.62,183.45,9.8,65.81,17.11,120.64,51.68,158.56,99.98,4.38,5.58,9.14,12.25,10.19,20.83,1.05,8.62-2,17.03-8.6,23.69-6.61,6.67-15.79,10.54-24.62,10.54ZM1977.87,1269.54l.57,6.21c-16.19,1.48-37.27,10.32-44.47,23.79-3.95,7.38-3.41,15.5,1.64,24.8,9.2,16.95,48.62,17.07,77.4,17.16,12.84.04,23.93.08,31.83,1.4l97.45,16.3c37.73,6.31,80.48,13.46,116.05,37.07,2.45,1.62,4.89,3.34,7.25,5,9.64,6.77,18.75,13.17,28.81,14.31,5.98.68,12.9-1.97,17.63-6.74,2.23-2.25,5.86-6.99,5.08-13.39-.66-5.4-4.13-10.19-7.62-14.64-45.76-58.28-107.86-84.16-151.89-95.61-50.19-13.05-107.12-16.05-179.17-9.45l-.57-6.21Z"/>
        </g>
      </g>
      <path class="cls-1" d="M1035.8,2221.15c-3.62,0-7.23-1.43-9.91-4.27-41.88-44.29-73.06-103.65-92.66-176.42-17.21-63.88-23.75-130.18-30.08-194.29-.74-7.49,4.73-14.16,12.23-14.9,7.49-.74,14.16,4.73,14.9,12.23,6.22,63.01,12.65,128.17,29.27,189.88,18.42,68.36,47.4,123.8,86.15,164.78,5.17,5.47,4.93,14.1-.54,19.27-2.63,2.49-6,3.73-9.36,3.73Z"/>
      <path class="cls-1" d="M1059.99,2631.39c-.22,0-.43,0-.65-.01-7.52-.35-13.33-6.74-12.97-14.26,3.87-82.13-10.42-165.49-24.25-246.12-10.87-63.37-22.1-128.91-24.78-194.42-.31-7.52,5.54-13.87,13.06-14.18,7.51-.32,13.87,5.54,14.18,13.06,2.61,63.75,13.69,128.4,24.41,190.93,14.07,82.06,28.62,166.91,24.61,252-.34,7.3-6.37,12.99-13.6,12.99Z"/>
      <path class="cls-1" d="M2026.41,2795.85c-6.65,0-12.47-4.87-13.47-11.64-9.18-62.24-12.78-125.84-10.69-189.05,2.09-63.21,9.88-126.44,23.15-187.93,1.59-7.36,8.85-12.03,16.2-10.45,7.36,1.59,12.04,8.84,10.45,16.2-26.14,121.12-30.22,244.68-12.14,367.25,1.1,7.45-4.05,14.38-11.5,15.47-.67.1-1.34.15-2.01.15Z"/>
      <g>
        <path class="cls-1" d="M2190.97,1590.75c-1.87,0-3.77-.39-5.58-1.2-53.75-24.17-116.78-27.8-172.95-9.96-7.17,2.28-14.84-1.69-17.12-8.87-2.28-7.17,1.69-14.84,8.87-17.12,62.47-19.83,132.59-15.79,192.37,11.08,6.87,3.09,9.93,11.16,6.84,18.02-2.27,5.05-7.24,8.04-12.44,8.04Z"/>
        <path class="cls-1" d="M1669.17,1556.38c-6.58-11.48-16.48-19.44-24.38-25.09-62.74-44.91-147.81-49.22-208.12-44.92-22.46,1.6-44.63,5.94-65.9,12.89-18.01,5.89-43.73,16.36-59.03,39.21-9.08,13.57-11.68,28.61-7.12,41.27,7.22,20.06,29.49,28.21,47.13,27.31,12.06-.62,22.8-4.34,33.18-7.93,3.34-1.16,6.5-2.25,9.65-3.22,23.59-7.29,51.16-8.87,81.95-4.69,29.46,3.99,59.76,12.95,84.1,20.15l.5.15c18.36,5.43,37.35,11.04,57.54,11.84,1.2.05,2.38.07,3.56.07,23.95,0,42.53-9.73,50.09-26.42,5.56-12.27,4.38-27.45-3.17-40.61ZM1386.55,1569.85c-3.6,1.11-7.12,2.33-10.53,3.51-8.98,3.11-17.46,6.04-25.66,6.46-8.08.43-17.8-2.96-20.08-9.31-1.55-4.3.03-10.77,4.12-16.88,8.07-12.06,22.32-21.1,44.85-28.46h0c5.58-1.82,11.23-3.44,16.93-4.86-2.08,15.36.85,31.51,8.34,45.05-6.17,1.2-12.16,2.7-17.97,4.49ZM1647.51,1585.74c-3.76,8.3-17.31,10.75-27.75,10.36-16.8-.66-33.35-5.56-50.88-10.74l-.5-.15c-5.04-1.49-10.33-3.05-15.8-4.63,2-3.26,3.51-6.39,4.49-8.65,5.73-13.14,7.98-31.46,6.33-48.57,23.29,6.36,45.79,15.96,65.53,30.1,8.38,6,13.5,11.08,16.59,16.48,3.1,5.42,3.88,11.62,1.99,15.8Z"/>
      </g>
      <g>
        <path class="cls-1" d="M1234.99,1458.99c-.66,0-1.32-.05-1.99-.15-56.54-8.28-118.24-12.96-177.91-17.49-66.53-5.05-135.33-10.27-198.63-20.52-7.43-1.2-12.48-8.2-11.28-15.63s8.2-12.48,15.63-11.28c62.17,10.07,130.38,15.24,196.34,20.25,60.13,4.56,122.31,9.28,179.8,17.7,7.45,1.09,12.6,8.01,11.51,15.46-.99,6.78-6.82,11.66-13.47,11.66Z"/>
        <path class="cls-1" d="M1894.15,1537.7c-2.55,0-5.12-.08-7.71-.24-36.13-2.29-68.3-18.02-99.42-33.22-11.17-5.46-22.73-11.11-34.08-15.9-79.12-33.43-168.45-40.28-253.16-44.44-77.75-3.81-169.67-5.04-261.95,14.78-7.36,1.58-14.61-3.1-16.19-10.46-1.58-7.36,3.1-14.61,10.46-16.19,95.36-20.49,189.5-19.26,269.01-15.36,87.15,4.28,179.2,11.39,262.43,46.55,12.04,5.09,23.93,10.9,35.44,16.52,30.05,14.69,58.44,28.56,89.18,30.51,29.73,1.89,57.9-10.72,87.73-24.06,20.7-9.26,42.11-18.83,64.96-23.81,154.63-33.7,279.19-20.66,370.22,38.75,6.3,4.11,8.08,12.56,3.96,18.86-4.11,6.3-12.56,8.08-18.86,3.96-84.69-55.27-202.29-67.03-349.52-34.94-20.09,4.38-39.3,12.97-59.63,22.06-29.3,13.11-59.53,26.62-92.88,26.62Z"/>
        <path class="cls-1" d="M1442,1828.53c-34.95,0-68.75-1.72-99.08-16.68-54.98-27.14-86.89-91.07-94.84-190l-.43-5.31c-5.66-70.33-8-99.44,1.08-171.84.94-7.47,7.75-12.77,15.22-11.83,7.47.94,12.77,7.75,11.83,15.22-8.73,69.62-6.45,97.91-.95,166.26l.43,5.32c7.13,88.71,33.96,145.14,79.74,167.74,26.4,13.03,57.1,13.97,91.61,13.86,48.37-.18,97.39-1.42,145.69-3.69,33.16-1.56,64.88-4.33,88.53-20.97,20.89-14.7,33.93-39.29,44.91-63.68,2.79-6.21,5.48-12.15,8.07-17.85,35.35-78.06,49.98-110.37,51-200.59.08-7.53,6.24-13.56,13.78-13.48,7.53.09,13.56,6.26,13.47,13.78-1.08,95.94-17.49,132.17-53.43,211.53-2.58,5.69-5.26,11.61-8.04,17.8-12.57,27.92-27.83,56.31-54.08,74.78-29.63,20.85-65.6,24.15-102.94,25.9-48.69,2.28-98.1,3.54-146.86,3.72-1.57,0-3.14,0-4.71,0Z"/>
        <path class="cls-1" d="M2158.84,1832.85c-6.82,0-13.46-.14-19.85-.36-44.77-1.54-95.77-7.32-134.54-38.58-43.02-34.68-58.37-90.12-67.71-139.77q-12.32-65.52-18.12-131.93c-.66-7.5,4.89-14.11,12.39-14.76,7.49-.66,14.11,4.89,14.76,12.39q5.68,65.07,17.75,129.26c8.42,44.77,21.9,94.47,58.03,123.59,32.54,26.22,78.1,31.17,118.37,32.56,42.94,1.47,91.92-.43,129.75-25.72,59.8-39.98,72.5-123.8,79.71-199.24l8.35-87.36c.72-7.49,7.35-12.99,14.87-12.27,7.49.72,12.99,7.37,12.27,14.87l-8.35,87.36c-7.81,81.66-21.97,172.69-91.7,219.3-38.14,25.5-85.28,30.67-125.99,30.67Z"/>
        <path class="cls-1" d="M1234.99,1512.34c-.66,0-1.32-.05-1.99-.15-63.11-9.25-128.94-25.6-192.59-41.42-57.88-14.38-117.73-29.25-174.49-38.45-7.43-1.2-12.48-8.2-11.28-15.63,1.2-7.43,8.2-12.48,15.63-11.28,57.87,9.37,118.28,24.38,176.7,38.9,63.02,15.66,128.18,31.85,189.97,40.9,7.45,1.09,12.6,8.01,11.51,15.46-.99,6.78-6.82,11.66-13.47,11.66Z"/>
        <path class="cls-1" d="M1250.29,1513.71c-5.78,0-11.55-.52-17.24-1.57-7.4-1.36-12.3-8.46-10.94-15.87,1.36-7.4,8.46-12.3,15.87-10.94,5.83,1.07,11.79,1.38,17.7.91,7.51-.58,14.07,5,14.67,12.51.6,7.5-5,14.07-12.51,14.67-2.51.2-5.03.3-7.55.3Z"/>
        <path class="cls-1" d="M2399.38,1546.78c-1.39,0-2.78-.21-4.13-.64-18.74-5.96-38.2-8.82-57.88-8.5-6.7.11-13.4.58-20.5,1.08-14.02.98-28.52,2-43.34.06-7.46-.98-12.72-7.82-11.74-15.29s7.82-12.73,15.29-11.74c12.11,1.59,24.63.71,37.89-.22,7.14-.5,14.53-1.02,21.97-1.14,15.62-.26,31.15,1.24,46.37,4.45-36.37-10.04-73.27-14.92-112.78-14.92-7.53,0-13.63-6.1-13.63-13.63s6.1-13.63,13.63-13.63c42.43,0,82.08,5.31,121.23,16.23,10.07,2.81,15.14,7.86,18.5,11.2.79.78,1.46,1.46,2.02,1.92,2.96,2.43,4.76,5.99,4.96,9.8.44,8.17-1.63,14.87-3.46,20.78-.43,1.38-.86,2.78-1.26,4.22-.99,3.56-3.39,6.57-6.65,8.33-2.01,1.09-4.24,1.64-6.48,1.64Z"/>
      </g>
      <path class="cls-1" d="M817.54,1775.45c-2.03,0-4.04-.85-5.46-2.51-2.57-3.01-2.22-7.54.79-10.11,9.02-7.71,12.96-19.09,14.67-27.29,2.38-11.4,2.13-23.67,1.9-34.5-.22-10.66.29-22.69,9.26-30.57,6.04-5.31,14.83-6.99,22.4-4.3,3.13,1.11,7.07,3.93,12.59,16.43,2.74,6.21,5.18,13.34,5.78,16.93.66,3.91-1.98,7.61-5.88,8.26-3.91.65-7.61-1.98-8.26-5.88-.8-4.75-6.62-19.17-9.67-22.42-2.54-.64-5.53.03-7.49,1.75-4.34,3.82-4.54,12.06-4.39,19.5.24,11.6.51,24.74-2.2,37.74-2.17,10.38-7.3,24.92-19.39,35.25-1.35,1.16-3.01,1.72-4.66,1.72Z"/>
    </g>
  </g>
</svg>