<?xml version="1.0" encoding="UTF-8"?>
<svg id="Layer_2" data-name="Layer 2" xmlns="http://www.w3.org/2000/svg" viewBox="0 0 3000 3000">
  <defs>
    <style>
      .cls-1 {
        fill: #09131f;
      }

      .cls-2 {
        fill: #e9ebf4;
      }
    </style>
  </defs>
  <circle class="cls-2" cx="1500" cy="1500" r="1500"/>
  <g>
    <path class="cls-1" d="M1718.67,2632.52c-14.35,0-29.46-.65-45.48-1.95-60.11-4.87-106.52-15.64-146.06-33.88-43.04-19.85-79.8-49.52-115.36-78.21l-292.04-235.65c-5.66-4.56-6.54-12.85-1.98-18.51,4.56-5.65,12.85-6.54,18.51-1.98l292.04,235.65c34.31,27.68,69.78,56.31,109.86,74.79,36.65,16.91,80.23,26.93,137.16,31.55,85.13,6.9,147.3-5.88,190.05-39.08,26.01-20.2,45.5-48.52,64.35-75.91,100.81-146.49,215.08-312.52,255.6-497.79,13.47-61.59,18.94-125.85,24.23-187.99l14.92-175.34c5.58-65.58,11.35-133.4.94-198.89-2.33-14.64-5.54-29.83-8.64-44.51-10.21-48.32-20.77-98.28-5.15-146.81,2.23-6.92,9.64-10.72,16.56-8.5,6.92,2.23,10.72,9.64,8.5,16.56-13.47,41.86-4.09,86.28,5.85,133.3,3.17,15,6.45,30.52,8.88,45.82,10.91,68.66,5,138.1-.71,205.25l-14.92,175.34c-5.36,62.98-10.9,128.11-24.74,191.38-18.46,84.39-52.82,171.29-105.05,265.66-47.52,85.87-104.4,168.51-154.58,241.43-19.99,29.04-40.65,59.07-69.89,81.77-26.86,20.86-60.53,34.84-100.07,41.56-19.29,3.28-40.06,4.91-62.77,4.91Z"/>
    <g>
      <path class="cls-1" d="M1633.8,1907.4c-2.05,0-4.08-.91-5.45-2.64-19.66-24.97-22.25-60.09-6.46-87.41,15.67-27.1,48.11-43.98,80.68-41.99,3.82.23,6.72,3.52,6.49,7.33s-3.54,6.74-7.33,6.49c-27.03-1.65-54.94,12.78-67.85,35.1-12.78,22.1-10.58,51.67,5.35,71.9,2.37,3.01,1.85,7.36-1.16,9.73-1.27,1-2.78,1.49-4.28,1.49Z"/>
      <path class="cls-1" d="M1908.57,1982.27c-4.59,0-9.13-.35-13.6-1.06-26.21-4.17-48.31-18.94-69.69-33.22-19.45-13-37.83-25.28-58.98-30.2-3.73-.87-6.04-4.59-5.18-8.32.87-3.73,4.59-6.04,8.32-5.18,23.61,5.5,43.91,19.06,63.54,32.18,21.06,14.07,40.95,27.37,64.17,31.06,31.73,5.05,66.19-11.61,81.94-39.61.53-.94,1.06-1.9,1.6-2.88,5.91-10.72,13.26-24.07,27.87-24.68,3.83-.19,7.05,2.81,7.21,6.63.16,3.82-2.81,7.05-6.63,7.21-6.33.26-10.75,7.43-16.31,17.52-.56,1.01-1.11,2.01-1.66,2.99-9.01,16.02-23.57,29.48-41.01,37.91-13.15,6.36-27.52,9.66-41.58,9.66Z"/>
      <path class="cls-1" d="M2043.09,1884.36c-.57,0-1.14-.07-1.72-.22-3.71-.95-5.94-4.72-5-8.42,7.06-27.62-8.3-59.72-34.23-71.56-3.48-1.59-5.01-5.7-3.42-9.18,1.59-3.48,5.7-5.01,9.18-3.42,15.52,7.09,28.39,20.04,36.25,36.47,7.86,16.43,9.86,34.59,5.64,51.11-.8,3.13-3.62,5.21-6.71,5.21Z"/>
      <path class="cls-1" d="M1354.76,2159.65c-2.92,0-5.63-1.86-6.58-4.78-15.78-48.37-1.59-104.41,35.3-139.45,9.66-9.18,20.71-16.95,31.39-24.46,17.92-12.6,34.85-24.5,44.92-42.12,1.9-3.32,6.13-4.47,9.45-2.58,3.32,1.9,4.47,6.13,2.57,9.45-11.61,20.3-30.61,33.65-48.98,46.57-10.27,7.22-20.9,14.69-29.82,23.17-33.1,31.44-45.82,81.71-31.67,125.11,1.19,3.64-.8,7.55-4.44,8.73-.71.23-1.44.34-2.15.34Z"/>
    </g>
    <path class="cls-1" d="M898.46,1955.89c-5.33,0-10.81-.64-16.38-1.96-26.2-6.24-50.42-25.55-70.04-55.84-31.83-49.13-43.57-108.47-53.93-160.82-17.11-86.46-34.8-175.87-32.68-266.39,1.12-47.56,14.1-78.02,39.69-93.1,11.54-6.8,25.78-10.19,42.27-10.03,47.78.42,94.01,31.5,112.44,75.58,2.8,6.71-.36,14.41-7.07,17.22-6.71,2.8-14.41-.36-17.22-7.07-14.49-34.65-50.83-59.08-88.39-59.41-11.67-.1-21.31,2.05-28.68,6.39-17.11,10.08-25.85,33.32-26.74,71.04-2.06,87.63,15.35,175.6,32.18,260.67,10.38,52.47,21.12,106.73,50.2,151.62,11.07,17.08,29.42,38.68,54.05,44.54,20.42,4.86,37.61-4.55,42.78-23.43,1.92-7.01,9.16-11.13,16.17-9.22,7.01,1.92,11.14,9.16,9.22,16.17-7.45,27.21-30.55,44.05-57.89,44.05Z"/>
    <path class="cls-1" d="M901.34,1735.39c-3.52,0-6.53-2.66-6.88-6.24-2.74-27.4-12.89-51.01-23.63-76-12-27.93-24.41-56.81-25.27-90.98-.1-3.82,2.93-7,6.75-7.1.06,0,.12,0,.18,0,3.74,0,6.83,2.99,6.92,6.75.79,31.5,12.14,57.9,24.15,85.86,10.68,24.86,21.73,50.56,24.69,80.09.38,3.81-2.4,7.2-6.2,7.58-.23.02-.47.03-.7.03Z"/>
    <path class="cls-1" d="M834.86,1387.03c-6.93,0-12.74-5.42-13.13-12.43-4.15-74.15-26.36-147.58-47.85-218.6-21.59-71.35-43.91-145.12-48.74-221.13-1.23-19.41-7.42-38.34-13.4-56.65-8.29-25.38-16.81-51.45-12.38-79.01-27.05,9.38-50.1,31.4-59.43,58.39-2.21,6.39-8.9,10.06-15.47,8.51-6.58-1.56-10.9-7.84-10.01-14.54,13.22-99.51,66.39-192.42,144.56-255.04l-37.92-2.36c-5.85-.36-10.75-4.55-12.02-10.26-1.28-5.72,1.38-11.59,6.51-14.41,35.88-19.7,77.21-28.68,117.97-25.86-1.42-53.01,22.99-106.2,64.83-139.05,3.96-3.11,9.36-3.69,13.89-1.48,4.53,2.21,7.4,6.81,7.39,11.86l-.18,87.99c20.44-19.23,39.04-41.08,57.16-62.39,29.7-34.91,60.41-71.01,99.94-97.02,42.71-28.1,93.32-42.42,137.4-53.65,82.77-21.07,155.04-33.71,220.96-38.64,81.85-6.12,154.78-.75,222.95,16.44,87.07,21.95,167.05,63.84,244.39,104.35,54.38,28.48,110.61,57.93,160.67,96.32,58.7,45.01,108.34,102,147.55,169.37,37.91,65.16,63.98,136.3,77.46,211.44,12.94,72.1,14.4,147.53,4.33,224.19-9.62,73.29-29.53,146.17-59.18,216.62-2.61,6.2-9.48,9.43-15.92,7.5-6.44-1.94-10.39-8.42-9.15-15.03,7.64-40.73,7.9-82.42.94-123.02l-10.27,59.86c-1.13,6.56-6.99,11.25-13.63,10.92-6.65-.33-12-5.58-12.47-12.22-2.55-36.25-7.58-72.26-15.06-107.76-5.98,57.62-22.97,114.15-50.14,165.21-2.72,5.12-8.48,7.85-14.16,6.73-5.69-1.12-9.97-5.83-10.55-11.6-7.96-79.68-31-158.44-67.1-230.12-10.43,61.26-35.86,120.25-73.52,169.51-2.6,3.4-6.69,5.32-10.95,5.16-4.27-.16-8.2-2.39-10.53-5.97-9.37-14.39-17.22-29.6-23.48-45.46l-19.67,40.93c-2.5,5.2-8.09,8.16-13.79,7.32-5.7-.85-10.19-5.3-11.08-11-3.57-23.02-8.38-45.9-14.39-68.45-4.02,15.85-9.58,31.42-16.61,46.36-15.97,33.93-39.28,64.1-67.4,87.23-3.63,2.99-8.58,3.81-12.98,2.16-4.4-1.65-7.59-5.53-8.36-10.17-9.16-55.25-23-109.65-41.31-162.53-5.22,63.78-30.84,125.98-73.53,173.82-3.59,4.02-9.26,5.45-14.32,3.61-5.06-1.84-8.49-6.58-8.65-11.97-.83-27.55-4.73-54.74-11.63-81.24-15.42,47.35-36.73,92.5-63.59,134.69-3.05,4.79-8.83,7.08-14.33,5.69-5.5-1.39-9.49-6.15-9.9-11.81-7.63-105.91-25.2-221.15-93.54-292.99,4.41,32.08,4.96,64.75,1.61,97.56-4.69,45.94-16.8,90.08-36,131.19-2.61,5.6-8.77,8.63-14.8,7.27-6.03-1.35-10.31-6.71-10.28-12.89.26-71.82-27.92-142.81-76.53-195.43-.08,74.49-13.56,149.67-39.5,219.25-2.38,6.39-9.25,9.9-15.82,8.09-6.57-1.81-10.68-8.34-9.45-15.05,13.33-73.04,6.95-148.52-18.43-218.29-2.48-6.83,1.04-14.38,7.87-16.87,6.83-2.48,14.38,1.04,16.87,7.87,12.82,35.24,21.08,71.86,24.7,108.91,6.54-41.39,8.82-83.46,6.67-125-.27-5.26,2.62-10.18,7.35-12.5,4.73-2.32,10.39-1.59,14.38,1.85,53.44,46.05,89.85,110.58,102.9,179.66,19.08-63.94,21.25-132.47,5.72-197.74-1.28-5.38.94-10.98,5.55-14.03,4.61-3.05,10.63-2.89,15.08.4,46.45,34.34,79.55,84.04,101.21,151.92,15.07,47.23,22.72,98.33,27.21,143.5,22.74-42.12,40.02-86.9,51.51-133.58,1.37-5.58,6.2-9.62,11.93-9.99,5.71-.38,11.04,3.02,13.12,8.37,12.01,30.97,20.01,63.1,23.89,95.89,41.35-60.53,57.2-138.25,41.48-210-1.45-6.6,2.34-13.22,8.76-15.32,6.42-2.1,13.39,1,16.13,7.18,31.56,71.24,54.88,145.98,69.44,222.5,41.15-41.91,65.1-99.67,64.95-158.67-.02-6.39,4.56-11.87,10.85-12.99,6.29-1.12,12.48,2.43,14.67,8.43,10.74,29.34,19.48,59.51,26.11,90.1l16.55-34.43c2.4-5,7.69-7.96,13.21-7.39,5.52.57,10.09,4.54,11.42,9.93,4.57,18.5,11.39,36.24,20.35,52.94,36.15-53.31,57.8-116.91,61.39-181.15.32-5.79,4.4-10.69,10.04-12.06,5.64-1.37,11.51,1.13,14.45,6.13,41.73,71.12,70.49,150.56,84.26,232.06,26.73-66.48,36.51-139.93,27.62-210.99-.84-6.69,3.51-12.92,10.08-14.45,6.56-1.52,13.22,2.15,15.42,8.52,13.7,39.64,24.32,80.26,31.79,121.47l5.56-32.44c1.01-5.9,5.88-10.37,11.84-10.89,5.95-.52,11.52,3.06,13.53,8.7,11.68,32.84,18.66,67.06,20.87,101.6,34.38-114.47,42.22-230.76,22.5-340.66-26.4-147.11-104.81-279.99-215.12-364.58-48.26-37-103.47-65.92-156.86-93.89-75.99-39.8-154.57-80.96-238.61-102.14-154.85-39.03-320.13-6.03-430.98,22.19-43.94,11.18-90.12,24.27-129.43,50.13-36.39,23.94-64.55,57.04-94.36,92.09-25.08,29.48-51.02,59.97-82.32,84.47-3.97,3.11-9.36,3.67-13.89,1.46-4.53-2.21-7.39-6.81-7.38-11.85l.18-85.5c-25.06,30.45-37.46,71.24-32.34,110.52.53,4.09-.88,8.19-3.82,11.09-2.94,2.89-7.07,4.24-11.15,3.63-19.22-2.84-38.81-2.61-57.91.53l9.21.57c5.66.35,10.47,4.3,11.91,9.79,1.44,5.49-.79,11.29-5.55,14.38-70.89,46.11-124.18,117.5-149.58,197.89.15-.12.29-.23.44-.35,18.44-14.57,40.01-23.46,62.38-25.7,4.65-.47,9.2,1.57,11.95,5.35,2.75,3.78,3.29,8.73,1.42,13.02-11.8,27-3.3,53.01,6.54,83.13,6.49,19.87,13.2,40.41,14.65,63.15,4.64,72.96,26.51,145.26,47.67,215.17,21.93,72.5,44.62,147.46,48.94,224.76.41,7.26-5.15,13.47-12.41,13.87-.25.01-.5.02-.75.02Z"/>
    <path class="cls-1" d="M2003.25,2078.13c-6.68-7.03-16.47-10.12-26.18-8.29-77.42,14.64-156.94,22.82-236.35,24.33-44.58.85-89.66-.42-134.01-3.76-5.33-.4-15.81-2.39-26.9-4.49-45.37-8.61-78.69-13.81-94.23-2.3-9.13,6.77-13.67,16.47-12.77,27.32,1.53,18.56,19.1,40.7,53.71,67.68,26.19,20.42,54.9,37.72,66.84,43.84,54.04,27.66,116.66,42.58,177.93,42.58,5.14,0,10.27-.11,15.39-.32,50.07-2.07,89.36-12.96,120.12-33.28,22.19-14.67,39.2-33.88,55.65-52.46,20.24-22.86,40.58-47.57,47.49-76.16,2.13-8.82-.37-18.04-6.68-24.68ZM1501.19,2104.81c.47-.26,5.81-2.85,27.18-.61,14.84,1.56,31.68,4.75,46.55,7.58,12.86,2.44,23.02,4.37,29.83,4.88,45.17,3.4,91.09,4.69,136.49,3.83,80.88-1.53,161.87-9.87,240.74-24.78h0c1.64-.31,2.37.69,2.4.82,0,0,0,.03-.02.1-2.63,10.89-8.16,21.56-15.19,31.98-60.25,28.19-132.32,40.9-225.74,39.88-74.67-.81-152.86-20.28-228.47-39.1-1.54-.38-3.05-.76-4.58-1.14-7.61-8.82-11-15.4-11.33-19.47-.09-1.14-.18-2.21,2.15-3.96Z"/>
    <g>
      <g>
        <path class="cls-1" d="M1637.28,1252.41c-77.74-13.23-157.33-20.36-235.43-9.5-78.1,10.86-155.07,40.77-213,94.27-5.89,5.43-11.8,11.5-13.77,19.27-4.62,18.26,15.95,34.56,34.78,34.33,18.83-.24,35.68-10.84,52.73-18.84,46.78-21.95,99.81-25.37,151.39-28.45,42.65-2.54,85.31-5.08,127.96-7.62,34.51-2.06,126.31,18.42,149.62-12,30.07-39.24-23.51-66.22-54.29-71.46Z"/>
        <path class="cls-1" d="M1209.46,1398.39c-13.37,0-27.23-6.67-35.45-17.08-6.38-8.09-8.63-17.59-6.31-26.73,2.51-9.92,9.57-17.07,15.98-23,69.57-64.25,156.47-87.79,217.12-96.22,68.24-9.48,143.79-6.46,237.76,9.54h0c21.56,3.67,57.18,18.17,66.97,43.1,3.58,9.11,5.11,23.52-7.91,40.51-19.28,25.16-73.09,20.6-116.33,16.94-15.28-1.29-29.71-2.52-38.89-1.97l-127.96,7.62c-48.04,2.86-102.5,6.1-148.61,27.74-3.19,1.5-6.47,3.14-9.65,4.72-14.39,7.19-29.26,14.62-46.22,14.83-.17,0-.34,0-.5,0ZM1481.57,1245.23c-27.65,0-53.68,1.75-78.67,5.22-58.49,8.13-142.21,30.75-208.88,92.32-4.81,4.44-10.06,9.67-11.55,15.54-1.44,5.7,1.11,10.52,3.5,13.56,5.32,6.75,15.11,11.41,23.8,11.28,13.47-.17,26.16-6.51,39.6-13.23,3.26-1.63,6.63-3.31,9.99-4.89,48.76-22.88,104.76-26.21,154.17-29.15l127.96-7.62c10.27-.62,24.55.6,41.08,2,37.45,3.17,88.74,7.52,102.95-11.03,7.07-9.23,8.98-17.63,5.82-25.67-7.03-17.91-36.59-30.46-55.34-33.65-57.75-9.83-108.34-14.69-154.43-14.69Z"/>
      </g>
      <g>
        <path class="cls-1" d="M1961.39,1277.49c58.64-5.37,118.14-5.51,175.06,9.29,56.92,14.8,111.42,45.44,149.87,94.42,3.91,4.98,7.79,10.48,8.6,17.12,1.91,15.61-14.67,27.74-28.59,26.16-13.92-1.58-25.52-11.67-37.48-19.61-32.81-21.78-71.78-28.53-109.71-34.87-31.36-5.25-62.73-10.49-94.09-15.74-25.38-4.25-95.02,6.16-109.76-20.99-19.01-35.01,22.88-53.66,46.1-55.78Z"/>
        <path class="cls-1" d="M2268.82,1430.65c-1.06,0-2.12-.06-3.17-.18-12.77-1.45-23.25-8.81-33.39-15.93-2.22-1.56-4.51-3.17-6.74-4.65-32.2-21.37-72.14-28.05-107.37-33.95l-94.09-15.74c-6.66-1.11-17.41-1.15-28.78-1.18-32.52-.1-72.98-.23-85.28-22.87-8.55-15.75-5.6-27.93-1.62-35.37,10.1-18.88,36.91-27.86,52.46-29.28,71-6.5,127.28-3.5,177.12,9.46,63.54,16.52,116.48,49.9,153.1,96.53,4.23,5.39,8.82,11.83,9.84,20.11,1.02,8.32-1.93,16.44-8.3,22.87-6.38,6.44-15.25,10.18-23.77,10.18ZM1961.39,1277.49l.55,6c-15.63,1.43-35.99,9.97-42.94,22.97-3.81,7.13-3.29,14.96,1.58,23.95,8.89,16.36,46.94,16.48,74.73,16.57,12.4.04,23.1.07,30.73,1.35l94.09,15.74c36.42,6.09,77.71,13,112.05,35.79,2.36,1.57,4.72,3.23,7,4.83,9.31,6.54,18.1,12.72,27.82,13.82,5.78.66,12.46-1.9,17.03-6.51,2.16-2.18,5.66-6.75,4.9-12.93-.64-5.21-3.98-9.84-7.36-14.13-44.19-56.27-104.14-81.26-146.65-92.31-48.46-12.6-103.42-15.5-172.99-9.12l-.55-6Z"/>
      </g>
    </g>
    <path class="cls-1" d="M1051.81,2196.28c-3.49,0-6.98-1.38-9.56-4.12-40.44-42.77-70.54-100.07-89.47-170.33-16.62-61.68-22.93-125.69-29.04-187.59-.71-7.23,4.57-13.68,11.8-14.39,7.24-.71,13.68,4.57,14.39,11.8,6,60.84,12.21,123.75,28.26,183.33,17.78,66.01,45.77,119.53,83.18,159.1,4.99,5.28,4.76,13.61-.52,18.6-2.54,2.41-5.79,3.6-9.04,3.6Z"/>
    <path class="cls-1" d="M1075.16,2592.38c-.21,0-.42,0-.63-.01-7.26-.34-12.87-6.5-12.53-13.77,3.73-79.29-10.07-159.79-23.41-237.63-10.49-61.19-21.34-124.46-23.93-187.71-.3-7.26,5.35-13.39,12.61-13.69,7.25-.31,13.39,5.35,13.69,12.61,2.52,61.55,13.22,123.98,23.57,184.34,13.58,79.23,27.63,161.16,23.76,243.31-.33,7.05-6.15,12.54-13.14,12.54Z"/>
    <path class="cls-1" d="M2008.25,2751.16c-6.42,0-12.04-4.7-13-11.24-8.86-60.09-12.34-121.5-10.32-182.53,2.02-61.03,9.54-122.08,22.35-181.45,1.53-7.11,8.54-11.62,15.64-10.09,7.1,1.53,11.62,8.54,10.09,15.64-25.24,116.94-29.18,236.24-11.72,354.59,1.06,7.19-3.91,13.88-11.1,14.94-.65.1-1.3.14-1.94.14Z"/>
    <g>
      <path class="cls-1" d="M2167.14,1587.62c-1.8,0-3.64-.37-5.39-1.16-51.89-23.33-112.75-26.84-166.98-9.62-6.93,2.2-14.33-1.63-16.52-8.56-2.2-6.93,1.63-14.33,8.56-16.53,60.32-19.15,128.02-15.25,185.74,10.7,6.63,2.98,9.59,10.77,6.61,17.4-2.19,4.88-6.99,7.77-12.01,7.77Z"/>
      <path class="cls-1" d="M1663.34,1554.44c-6.35-11.09-15.91-18.77-23.54-24.22-60.58-43.36-142.71-47.52-200.94-43.38-21.68,1.54-43.09,5.73-63.62,12.45-17.39,5.69-42.22,15.8-57,37.86-8.77,13.1-11.28,27.62-6.88,39.85,6.97,19.36,28.47,27.24,45.51,26.37,11.65-.6,22.01-4.19,32.03-7.66,3.23-1.12,6.27-2.17,9.32-3.11,22.78-7.04,49.4-8.56,79.12-4.53,28.44,3.85,57.7,12.5,81.2,19.45l.48.14c17.73,5.24,36.06,10.66,55.56,11.43,1.16.05,2.3.07,3.43.07,23.12,0,41.07-9.4,48.37-25.51,5.37-11.84,4.22-26.5-3.06-39.21ZM1390.46,1567.44c-3.47,1.07-6.87,2.25-10.16,3.39-8.67,3-16.86,5.84-24.77,6.24-7.8.41-17.18-2.85-19.39-8.99-1.49-4.15.03-10.4,3.98-16.29,7.79-11.64,21.55-20.37,43.3-27.48h0c5.39-1.76,10.84-3.32,16.35-4.69-2.01,14.83.83,30.42,8.05,43.5-5.96,1.16-11.75,2.6-17.35,4.34ZM1642.42,1582.78c-3.63,8.02-16.71,10.38-26.79,10-16.22-.64-32.2-5.36-49.13-10.37l-.48-.14c-4.86-1.44-9.97-2.95-15.26-4.47,1.93-3.15,3.39-6.17,4.34-8.35,5.53-12.69,7.71-30.37,6.11-46.9,22.49,6.14,44.21,15.41,63.27,29.06,8.09,5.79,13.04,10.7,16.02,15.91,3,5.23,3.75,11.22,1.92,15.26Z"/>
    </g>
    <g>
      <path class="cls-1" d="M1244.13,1460.4c-.64,0-1.28-.05-1.92-.14-54.59-8-114.16-12.52-171.77-16.89-64.24-4.87-130.66-9.91-191.78-19.81-7.17-1.16-12.05-7.92-10.89-15.09s7.92-12.05,15.09-10.89c60.02,9.72,125.88,14.72,189.57,19.55,58.06,4.4,118.09,8.96,173.6,17.09,7.19,1.05,12.17,7.74,11.11,14.93-.96,6.54-6.58,11.25-13,11.25Z"/>
      <path class="cls-1" d="M1880.55,1536.4c-2.46,0-4.94-.08-7.44-.23-34.88-2.22-65.95-17.4-95.99-32.08-10.79-5.27-21.94-10.72-32.9-15.35-76.39-32.27-162.64-38.89-244.42-42.91-75.06-3.68-163.81-4.87-252.91,14.27-7.11,1.53-14.1-3-15.63-10.1-1.53-7.11,3-14.1,10.1-15.63,92.07-19.78,182.96-18.6,259.73-14.83,84.14,4.13,173.02,11,253.38,44.95,11.62,4.91,23.11,10.52,34.22,15.95,29.02,14.18,56.43,27.57,86.11,29.46,28.7,1.82,55.9-10.35,84.7-23.23,19.99-8.94,40.66-18.19,62.72-22.99,149.3-32.54,269.56-19.95,357.46,37.42,6.09,3.97,7.8,12.13,3.83,18.21-3.97,6.09-12.13,7.8-18.21,3.83-81.77-53.37-195.31-64.72-337.47-33.74-19.4,4.23-37.94,12.52-57.57,21.3-28.29,12.65-57.47,25.71-89.68,25.71Z"/>
      <path class="cls-1" d="M1444,1817.2c-33.74,0-66.38-1.66-95.66-16.11-53.09-26.2-83.9-87.92-91.57-183.45l-.41-5.13c-5.47-67.9-7.73-96.01,1.04-165.91.9-7.21,7.49-12.33,14.69-11.42,7.21.9,12.32,7.48,11.42,14.69-8.43,67.22-6.23,94.53-.92,160.53l.41,5.13c6.88,85.65,32.78,140.14,76.99,161.96,25.49,12.58,55.14,13.49,88.45,13.38,46.7-.18,94.03-1.37,140.66-3.56,32.02-1.5,62.65-4.18,85.47-20.24,20.17-14.19,32.76-37.93,43.36-61.48,2.7-5.99,5.3-11.73,7.79-17.24,34.13-75.37,48.26-106.56,49.24-193.68.08-7.27,6.02-13.1,13.31-13.01,7.27.08,13.09,6.04,13.01,13.31-1.05,92.64-16.88,127.61-51.58,204.23-2.49,5.49-5.08,11.21-7.77,17.19-12.14,26.96-26.87,54.37-52.21,72.2-28.61,20.13-63.34,23.32-99.39,25.01-47.01,2.21-94.72,3.41-141.8,3.59-1.51,0-3.03,0-4.54,0Z"/>
      <path class="cls-1" d="M2136.12,1821.37c-6.59,0-12.99-.14-19.16-.35-43.23-1.49-92.46-7.07-129.9-37.25-41.54-33.48-56.36-87.01-65.37-134.95q-11.9-63.26-17.49-127.38c-.63-7.24,4.72-13.62,11.97-14.25,7.23-.63,13.62,4.72,14.25,11.97q5.49,62.83,17.14,124.81c8.13,43.23,21.14,91.21,56.02,119.32,31.41,25.32,75.4,30.1,114.29,31.43,41.45,1.42,88.75-.42,125.28-24.84,57.74-38.6,70-119.54,76.96-192.37l8.06-84.35c.69-7.23,7.1-12.54,14.35-11.85,7.23.69,12.54,7.12,11.85,14.35l-8.06,84.35c-7.54,78.85-21.22,166.73-88.53,211.74-36.82,24.62-82.34,29.61-121.65,29.61Z"/>
      <path class="cls-1" d="M1244.13,1511.92c-.64,0-1.28-.05-1.92-.14-60.94-8.93-124.49-24.72-185.95-39.99-55.89-13.89-113.67-28.25-168.47-37.12-7.17-1.16-12.05-7.92-10.89-15.09,1.16-7.17,7.92-12.05,15.09-10.89,55.87,9.05,114.2,23.54,170.61,37.56,60.84,15.12,123.76,30.75,183.42,39.49,7.19,1.05,12.17,7.74,11.11,14.93-.96,6.54-6.58,11.25-13,11.25Z"/>
      <path class="cls-1" d="M1258.9,1513.24c-5.58,0-11.15-.51-16.64-1.52-7.15-1.31-11.88-8.17-10.57-15.32,1.31-7.15,8.17-11.88,15.32-10.57,5.63,1.03,11.38,1.33,17.09.88,7.25-.56,13.59,4.83,14.16,12.08.58,7.25-4.83,13.59-12.08,14.16-2.43.19-4.86.29-7.29.29Z"/>
      <path class="cls-1" d="M2368.36,1545.17c-1.34,0-2.68-.2-3.99-.62-18.1-5.75-36.88-8.52-55.89-8.21-6.47.1-12.94.56-19.79,1.04-13.54.95-27.54,1.93-41.85.06-7.21-.94-12.28-7.55-11.34-14.76.94-7.21,7.55-12.29,14.76-11.34,11.69,1.53,23.78.68,36.58-.21,6.9-.48,14.03-.98,21.21-1.1,15.08-.25,30.08,1.2,44.77,4.3-35.11-9.69-70.75-14.4-108.89-14.4-7.27,0-13.16-5.89-13.16-13.16s5.89-13.16,13.16-13.16c40.96,0,79.25,5.13,117.05,15.67,9.72,2.71,14.62,7.59,17.86,10.82.76.76,1.41,1.41,1.95,1.85,2.85,2.34,4.59,5.78,4.79,9.47.42,7.89-1.58,14.36-3.34,20.06-.41,1.33-.83,2.68-1.22,4.08-.96,3.44-3.28,6.34-6.42,8.04-1.94,1.05-4.09,1.58-6.26,1.58Z"/>
    </g>
    <path class="cls-1" d="M841.07,1765.95c-1.96,0-3.9-.82-5.27-2.43-2.49-2.91-2.14-7.28.77-9.77,8.71-7.45,12.51-18.44,14.17-26.35,2.3-11,2.06-22.86,1.84-33.31-.21-10.29.28-21.91,8.94-29.52,5.83-5.12,14.32-6.75,21.63-4.15,3.02,1.07,6.83,3.8,12.16,15.87,2.65,6,5,12.88,5.58,16.35.63,3.77-1.91,7.34-5.68,7.98-3.77.63-7.34-1.91-7.98-5.68-.77-4.59-6.39-18.5-9.33-21.65-2.45-.62-5.34.03-7.23,1.69-4.19,3.68-4.38,11.65-4.23,18.82.23,11.2.5,23.89-2.13,36.44-2.1,10.02-7.05,24.06-18.73,34.04-1.3,1.12-2.91,1.66-4.5,1.66Z"/>
  </g>
</svg>